HIERARCHY
ROOT ui
{
	 OFFSET 0 0 0
	 CHANNELS 3 XPosition YPosition Z Position
	 EndSite
	 {
	 OFFSET 0 -1 0
	 }
}
ROOT li
{
	 OFFSET 0 0 0
	 CHANNELS 3 XPosition YPosition Z Position
	 EndSite
	 {
	 OFFSET 0 -1 0
	 }
}
ROOT ul
{
	 OFFSET 0 0 0
	 CHANNELS 3 XPosition YPosition Z Position
	 EndSite
	 {
	 OFFSET 0 -1 0
	 }
}
ROOT ll
{
	 OFFSET 0 0 0
	 CHANNELS 3 XPosition YPosition Z Position
	 EndSite
	 {
	 OFFSET 0 -1 0
	 }
}
ROOT tt
{
	 OFFSET 0 0 0
	 CHANNELS 3 XPosition YPosition Z Position
	 EndSite
	 {
	 OFFSET 0 -1 0
	 }
}
ROOT tb
{
	 OFFSET 0 0 0
	 CHANNELS 3 XPosition YPosition Z Position
	 EndSite
	 {
	 OFFSET 0 -1 0
	 }
}
ROOT td
{
	 OFFSET 0 0 0
	 CHANNELS 3 XPosition YPosition Z Position
	 EndSite
	 {
	 OFFSET 0 -1 0
	 }
}
ROOT v
{
	 OFFSET 0 0 0
	 CHANNELS 3 XPosition YPosition Z Position
	 EndSite
	 {
	 OFFSET 0 -1 0
	 }
}
ROOT bn
{
	 OFFSET 0 0 0
	 CHANNELS 3 XPosition YPosition Z Position
	 EndSite
	 {
	 OFFSET 0 -1 0
	 }
}
MOTION
Frames: 10
Frame Time: 0.002
-0.026076513290405272	0.002042243003845215	0		0.5873324584960937	-2.73159228515625	0		-0.9295634765625	0.285189453125	0		-0.33417694091796873	-3.4503232421875	0		2.199389404296875	-1.7330679931640625	0		3.859850830078125	-1.0229913940429687	0		5.12405517578125	-0.7102048950195312	0		5.91376220703125	0.40157125854492187	0		-0.2540357208251953	5.893333984375	0		
0.026587259292602538	8.388360142707825E-4	0		0.5869818115234375	-2.73132373046875	0		-0.99496435546875	0.27705850219726563	0		-0.42248565673828126	-3.444253173828125	0		2.2020029296875	-1.7378414306640626	0		3.85951611328125	-1.0227534790039063	0		5.13285986328125	-0.6950572509765625	0		5.91344091796875	0.40178997802734373	0		-0.22025296020507812	5.8993037109375	0		
0.030325510025024413	0.0050960822105407715	0		0.5637214965820313	-2.723828369140625	0		-0.925217041015625	0.28173013305664063	0		-0.34782913208007815	-3.445632080078125	0		2.19289599609375	-1.7144888916015626	0		3.86225341796875	-1.0175247192382812	0		5.13442138671875	-0.7098276977539062	0		5.91314697265625	0.40202587890625	0		-0.220492919921875	5.899599609375	0		
0.02601918411254883	0.0014456349611282348	0		0.5883787231445312	-2.728745849609375	0		-0.9304484252929688	0.28609759521484374	0		-0.39501336669921877	-3.43189111328125	0		2.196663330078125	-1.7082327880859376	0		3.875963623046875	-1.0183748168945312	0		5.13109130859375	-0.7155328979492187	0		5.91288037109375	0.40228250122070314	0		-0.10160297393798828	5.91083984375	0		
0.02576983642578125	0.0017781180143356323	0		0.5771676025390625	-2.721319580078125	0		-0.9297675170898437	0.27843026733398435	0		-0.33927896118164064	-3.43006103515625	0		2.198425048828125	-1.7049388427734375	0		3.8517509765625	-1.0128614501953126	0		5.12491845703125	-0.70619091796875	0		5.9085625	0.39459652709960935	0		-0.27104345703125	5.88470263671875	0		
-0.02250497817993164	-0.0014367059469223022	0		0.5769013671875	-2.72097412109375	0		-0.935968994140625	0.28284393310546874	0		-0.3955676574707031	-3.4312001953125	0		2.1662509765625	-1.6953194580078126	0		3.851500732421875	-1.0125469970703125	0		5.11959130859375	-0.7148394775390625	0		5.90931640625	0.39388259887695315	0		-0.25513873291015626	5.89491064453125	0		
-0.022751840591430664	-0.0010691130161285401	0		0.587563232421875	-2.7277119140625	0		-0.9252949829101562	0.2741214294433594	0		-0.3449236755371094	-3.43929052734375	0		2.15712353515625	-1.6798929443359376	0		3.860370361328125	-0.998300537109375	0		5.12239306640625	-0.708547607421875	0		5.92199169921875	0.3850729675292969	0		-0.2543443450927734	5.893271484375	0		
-0.023945465087890624	0.007322437763214111	0		0.5933297119140625	-2.720390869140625	0		-0.9205220947265625	0.2784687805175781	0		-0.41698046875	-3.411251953125	0		2.161046875	-1.6565718994140626	0		3.83713916015625	-0.9927527465820313	0		5.1272021484375	-0.6992642211914063	0		5.9118935546875	0.4034792175292969	0		-0.22147337341308593	5.901357421875	0		
0.02968511199951172	-7.715709805488586E-4	0		0.6159361572265625	-2.7272109375	0		-0.8668063354492187	0.2793857421875	0		-0.36030242919921873	-3.40936865234375	0		2.158931396484375	-1.6341859130859375	0		3.83378662109375	-0.9973778076171875	0		5.12079150390625	-0.7108736572265625	0		5.89953173828125	0.3959097900390625	0		-0.27084576416015627	5.8852021484375	0		
-0.023642066955566407	1.1754299700260162E-4	0		0.5786692504882812	-2.715476318359375	0		-0.946164794921875	0.2765245361328125	0		-0.3586535339355469	-3.405974609375	0		2.153678955078125	-1.6227646484375	0		3.832461181640625	-0.9950166625976562	0		5.1094638671875	-0.7094349365234375	0		5.8941357421875	0.3882781066894531	0		-0.23703738403320312	5.8913037109375	0		
